<svg height="512" viewBox="0 0 44 60" width="512" xmlns="http://www.w3.org/2000/svg"><g id="Page-1" fill="none" fill-rule="evenodd"><g id="042---Paper" fill-rule="nonzero"><path id="Shape" d="m43 15v39c0 2.7614237-2.2385763 5-5 5h-32c-2.76142375 0-5-2.2385763-5-5v-48c0-2.76142375 2.23857625-5 5-5h23v9c0 2.7614237 2.2385763 5 5 5z" fill="#e8edfc"/><path id="Shape" d="m31 15h3c-2.7614237 0-5-2.2385763-5-5v-9h-3v9c0 2.7614237 2.2385763 5 5 5z" fill="#cad9fc"/><path id="Shape" d="m40 15v39c0 1.3260824-.5267842 2.597852-1.4644661 3.5355339s-2.2094515 1.4644661-3.5355339 1.4644661h3c2.7614237 0 5-2.2385763 5-5v-39z" fill="#cad9fc"/><path id="Shape" d="m43 15h-9c-2.7614237 0-5-2.2385763-5-5v-9z" fill="#a4c2f7"/><path id="Shape" d="m6 59h3c-2.76142375 0-5-2.2385763-5-5v-48c0-2.76142375 2.23857625-5 5-5h-3c-2.76142375 0-5 2.23857625-5 5v48c0 2.7614237 2.23857625 5 5 5z" fill="#fff"/><path id="Rectangle-path" d="m0 46h2v8h-2z" fill="#fff"/><g fill="#428dff"><path id="Shape" d="m33 41.5c0 .5522847.4477153 1 1 1s1-.4477153 1-1c-.0965423-2.2415987-1.7783513-4.0953727-4-4.409v-.091c0-.5522847-.4477153-1-1-1s-1 .4477153-1 1v.091c-2.2689467.2217152-3.9991648 2.1292464-3.9991648 4.409s1.7302181 4.1872848 3.9991648 4.409v4.937c-1.1128409-.2524624-1.9267959-1.2072317-2-2.346 0-.5522847-.4477153-1-1-1s-1 .4477153-1 1c.0965423 2.2415987 1.7783513 4.0953727 4 4.409v.091c0 .5522847.4477153 1 1 1s1-.4477153 1-1v-.091c2.2689467-.2217152 3.9991648-2.1292464 3.9991648-4.409s-1.7302181-4.1872848-3.9991648-4.409v-4.937c1.1128409.2524624 1.9267959 1.2072317 2 2.346zm-6 0c.0732041-1.1387683.8871591-2.0935376 2-2.346v4.692c-1.1128409-.2524624-1.9267959-1.2072317-2-2.346zm6 7c-.0732041 1.1387683-.8871591 2.0935376-2 2.346v-4.692c1.1128409.2524624 1.9267959 1.2072317 2 2.346z"/><path id="Shape" d="m1 47c.55228475 0 1-.4477153 1-1v-25.333-4.167c0-.5522847-.44771525-1-1-1s-1 .4477153-1 1v4.167 25.333c0 .5522847.44771525 1 1 1z"/><circle id="Oval" cx="1" cy="50" r="1"/><path id="Shape" d="m6 60h32c3.3123376-.0033074 5.9966926-2.6876624 6-6v-39c-.0000566-.2651948-.1054506-.5195073-.293-.707l-14-14c-.1874927-.18754937-.4418052-.29294336-.707-.293h-23c-3.31233757.00330738-5.99669262 2.68766243-6 6v6c0 .5522847.44771525 1 1 1s1-.4477153 1-1v-6c0-2.209139 1.790861-4 4-4h22v8c.0033074 3.3123376 2.6876624 5.9966926 6 6h8v38c0 2.209139-1.790861 4-4 4h-32c-2.209139 0-4-1.790861-4-4 0-.5522847-.44771525-1-1-1s-1 .4477153-1 1c.00330738 3.3123376 2.68766243 5.9966926 6 6zm24-50v-6.586l10.586 10.586h-6.586c-2.209139 0-4-1.790861-4-4z"/><path id="Shape" d="m7 53c0 .5522847.44771525 1 1 1h4c.5522847 0 1-.4477153 1-1s-.4477153-1-1-1h-3v-3c0-.5522847-.44771525-1-1-1s-1 .4477153-1 1z"/><path id="Shape" d="m8 22h27c.5522847 0 1-.4477153 1-1s-.4477153-1-1-1h-27c-.55228475 0-1 .4477153-1 1s.44771525 1 1 1z"/><path id="Shape" d="m8 28h27c.5522847 0 1-.4477153 1-1s-.4477153-1-1-1h-27c-.55228475 0-1 .4477153-1 1s.44771525 1 1 1z"/><path id="Shape" d="m8 34h27c.5522847 0 1-.4477153 1-1s-.4477153-1-1-1h-27c-.55228475 0-1 .4477153-1 1s.44771525 1 1 1z"/><path id="Shape" d="m8 40h14c.5522847 0 1-.4477153 1-1s-.4477153-1-1-1h-14c-.55228475 0-1 .4477153-1 1s.44771525 1 1 1z"/></g></g></g></svg>